<?xml version="1.0" encoding="UTF-8" standalone="no"?>
<svg
   xmlns:dc="http://purl.org/dc/elements/1.1/"
   xmlns:cc="http://creativecommons.org/ns#"
   xmlns:rdf="http://www.w3.org/1999/02/22-rdf-syntax-ns#"
   xmlns:svg="http://www.w3.org/2000/svg"
   xmlns="http://www.w3.org/2000/svg"
   xmlns:sodipodi="http://sodipodi.sourceforge.net/DTD/sodipodi-0.dtd"
   xmlns:inkscape="http://www.inkscape.org/namespaces/inkscape"
   inkscape:version="1.0 (4035a4fb49, 2020-05-01)"
   sodipodi:docname="img.svg"
   id="svg10"
   xml:space="preserve"
   enable-background="new 0 0 1000 1000"
   viewBox="0 0 1000 1000"
   y="0px"
   x="0px"
   version="1.1"><defs
   id="defs14" /><sodipodi:namedview
   inkscape:current-layer="svg10"
   inkscape:window-maximized="1"
   inkscape:window-y="-9"
   inkscape:window-x="-9"
   inkscape:cy="525.3012"
   inkscape:cx="500"
   inkscape:zoom="0.83"
   inkscape:pagecheckerboard="true"
   showgrid="false"
   id="namedview12"
   inkscape:window-height="1001"
   inkscape:window-width="1920"
   inkscape:pageshadow="2"
   inkscape:pageopacity="0"
   guidetolerance="10"
   gridtolerance="10"
   objecttolerance="10"
   borderopacity="1"
   bordercolor="#666666"
   pagecolor="#ffffff" />
<metadata
   id="metadata2"> Svg Vector Icons : http://www.onlinewebfonts.com/icon <rdf:RDF><cc:Work
     rdf:about=""><dc:format>image/svg+xml</dc:format><dc:type
       rdf:resource="http://purl.org/dc/dcmitype/StillImage" /><dc:title></dc:title></cc:Work></rdf:RDF></metadata>
<g
   id="g8"><g
     id="g6"
     transform="translate(0.000000,511.000000) scale(0.100000,-0.100000)"><path
       style="fill:#ffffff"
       id="path4"
       d="M 5388.9,4265.4 C 4452.3,4185.7 3551.5,3777.2 2870,3121.5 2314,2587.4 1943.3,1969.7 1722.1,1208.4 l -45.8,-159.4 -791.1,8 c -569.9,4 -789.1,0 -785.2,-15.9 4,-12 488.2,-797.1 1074.1,-1743.7 805.1,-1299.3 1072.1,-1717.8 1088.1,-1699.9 31.9,33.9 2220,3393.7 2220,3409.7 0,6 -326.8,12 -725.4,12 -400.6,0 -731.4,8 -737.3,15.9 -4,8 25.9,95.7 65.8,193.3 384.6,910.7 1181.7,1548.4 2164.2,1735.7 239.1,45.8 729.4,47.8 980.5,2 1002.4,-181.3 1847.3,-872.9 2208,-1803.5 540,-1396.9 -63.8,-2967.3 -1396.9,-3636.9 -864.9,-434.4 -1899.1,-410.5 -2722.2,65.8 -123.5,71.7 -171.4,89.7 -189.3,71.7 -33.9,-33.9 -663.6,-1006.4 -663.6,-1026.3 0,-43.8 432.4,-281 731.4,-398.6 623.7,-247.1 1281.4,-342.8 1931,-279 1803.3,173.5 3294,1490.7 3682.5,3250.4 79.7,362.7 97.6,573.9 85.7,1018.3 -10,452.4 -47.8,699.5 -163.4,1076.1 C 9527.9,1985.6 9177.2,2563.6 8669,3071.7 7812.2,3924.6 6594.6,4367 5388.9,4265.4 Z" /></g></g>
</svg>
